<?xml version="1.0" encoding="UTF-8"?>
<!DOCTYPE svg PUBLIC "-//W3C//DTD SVG 1.1//EN" "http://www.w3.org/Graphics/SVG/1.1/DTD/svg11.dtd">
<!-- Creator: CorelDRAW -->
<svg xmlns="http://www.w3.org/2000/svg" xml:space="preserve" width="11.8705in" height="9.32761in" version="1.1" style="shape-rendering:geometricPrecision; text-rendering:geometricPrecision; image-rendering:optimizeQuality; fill-rule:evenodd; clip-rule:evenodd"
viewBox="0 0 14743.63 11585.28"
 xmlns:xlink="http://www.w3.org/1999/xlink"
 xmlns:xodm="http://www.corel.com/coreldraw/odm/2003">
 <defs>
  <style type="text/css">
   <![CDATA[
    .fil2 {fill:#718FC8}
    .fil8 {fill:#718FC8}
    .fil0 {fill:#FEFEFE;fill-rule:nonzero}
    .fil5 {fill:#FCD1BC;fill-rule:nonzero}
    .fil6 {fill:#E8C1AC;fill-rule:nonzero}
    .fil4 {fill:#718FC8;fill-rule:nonzero}
    .fil3 {fill:#718FC8;fill-rule:nonzero}
    .fil7 {fill:#4B4C57;fill-rule:nonzero}
    .fil1 {fill:url(#id0)}
   ]]>
  </style>
  <radialGradient id="id0" gradientUnits="userSpaceOnUse" gradientTransform="matrix(3.55495 -0 -0 -3.55511 -16265 23976)" cx="6366" cy="5263.55" r="1941.02" fx="6366" fy="5263.55">
   <stop offset="0" style="stop-opacity:1; stop-color:#F5D88D"/>
   <stop offset="1" style="stop-opacity:1; stop-color:#F1C778"/>
  </radialGradient>
 </defs>
 <g id="Capa_x0020_1">
  <metadata id="CorelCorpID_0Corel-Layer"/>
  <path class="fil0" d="M1064.81 7540.67l-59.87 0 -0.59 -64.19c-0.28,-28.59 22.66,-56.27 51.25,-56.57l0.51 0c16.39,0 31.03,7.62 40.51,19.56 12.14,9.47 19.95,28.53 19.95,45.12 0,28.59 -23.17,56.07 -51.75,56.07z"/>
  <path class="fil0" d="M3203.34 104.28c-27.41,0 -50.3,-21.55 -51.65,-49.24 -1.38,-28.55 20.64,-52.8 49.18,-54.2l17.39 -0.79c28.14,-1.21 52.72,20.86 53.99,49.4 1.26,28.55 -20.88,52.72 -49.42,53.99l-16.94 0.78 -2.55 0.05zm275.97 0.1l-2.61 -0.07 -16.99 -0.8c-28.55,-1.24 -50.68,-25.41 -49.44,-53.96 1.26,-28.55 25.43,-50.6 53.97,-49.44l17.6 0.83c28.55,1.41 50.54,25.72 49.11,54.25 -1.38,27.67 -24.23,49.18 -51.65,49.18zm-533.03 24.72c-25.31,0 -47.44,-18.58 -51.15,-44.37 -4.09,-28.29 15.55,-54.53 43.83,-58.6l17.25 -2.45c28.27,-3.83 54.46,15.78 58.41,44.11 3.94,28.31 -15.82,54.46 -44.11,58.4l-16.79 2.38c-2.5,0.36 -4.98,0.53 -7.45,0.53zm790.51 0.31c-2.47,0 -4.97,-0.18 -7.47,-0.54l-16.82 -2.38c-28.31,-3.93 -48.08,-30.07 -44.15,-58.38 3.92,-28.31 29.98,-48.02 58.36,-44.16l17.42 2.47c28.29,4.1 47.91,30.36 43.82,58.64 -3.75,25.77 -25.86,44.35 -51.16,44.35zm-1044.09 48.78c-23.31,0 -44.47,-15.87 -50.23,-39.52 -6.76,-27.77 10.26,-55.77 38.04,-62.52l17.04 -4.1c27.86,-6.56 55.7,10.63 62.29,38.43 6.59,27.8 -10.63,55.7 -38.43,62.29l-16.41 3.94c-4.12,1 -8.24,1.48 -12.3,1.48zm1297.91 0.53c-4.05,0 -8.19,-0.48 -12.3,-1.48l-16.49 -3.97c-27.8,-6.61 -44.99,-34.52 -38.38,-62.31 6.61,-27.8 34.5,-45.02 62.31,-38.4l17.1 4.12c27.76,6.76 44.78,34.78 38,62.53 -5.76,23.65 -26.93,39.5 -50.23,39.5zm-1545.67 72.61c-21.43,0 -41.45,-13.4 -48.89,-34.78 -9.38,-26.98 4.89,-56.48 31.88,-65.88l16.58 -5.71c27.05,-9.18 56.46,5.21 65.69,32.27 9.21,27.05 -5.23,56.46 -32.28,65.69l-15.99 5.5c-5.62,1.97 -11.37,2.9 -16.99,2.9zm1793.52 0.76c-5.62,0 -11.36,-0.93 -16.99,-2.88l-16.08 -5.55c-27.03,-9.25 -41.47,-38.67 -32.21,-65.73 9.25,-27.03 38.66,-41.51 65.73,-32.21l16.53 5.71c27,9.36 41.28,38.87 31.91,65.86 -7.43,21.37 -27.46,34.79 -48.89,34.79zm-2033.24 95.79c-19.58,0 -38.33,-11.18 -47.04,-30.16 -11.94,-25.96 -0.57,-56.68 25.41,-68.62l15.99 -7.3c26.07,-11.78 56.72,-0.19 68.47,25.86 11.77,26.05 0.19,56.7 -25.84,68.46l-15.38 7.01c-7.01,3.22 -14.37,4.74 -21.6,4.74zm2272.85 0.95c-7.26,0 -14.65,-1.54 -21.67,-4.78l-15.3 -6.99c-26.03,-11.78 -37.59,-42.43 -25.82,-68.48 11.78,-26.03 42.45,-37.62 68.48,-25.82l16.04 7.34c25.95,11.98 37.26,42.73 25.27,68.67 -8.73,18.92 -27.44,30.05 -47.01,30.05zm-2502.32 118.1c-17.85,0 -35.21,-9.25 -44.82,-25.79 -14.33,-24.72 -5.93,-56.39 18.79,-70.73l15.25 -8.8c24.86,-14.18 56.44,-5.54 70.62,19.25 14.18,24.82 5.55,56.42 -19.25,70.61l-14.66 8.45c-8.18,4.74 -17.11,7 -25.93,7zm2731.58 1.04c-8.85,0 -17.82,-2.26 -26.01,-7.06l-14.58 -8.42c-24.79,-14.22 -33.36,-45.85 -19.15,-70.64 14.22,-24.79 45.83,-33.34 70.64,-19.13l15.23 8.8c24.68,14.41 33.04,46.09 18.63,70.78 -9.62,16.47 -26.94,25.67 -44.77,25.67zm-2948.88 139.12c-16.17,0 -32.09,-7.54 -42.2,-21.7 -16.6,-23.29 -11.16,-55.6 12.11,-72.19l14.32 -10.15c23.35,-16.45 55.65,-10.87 72.12,12.49 16.46,23.36 10.87,55.65 -12.49,72.11l-13.89 9.83c-9.09,6.5 -19.59,9.61 -29.98,9.61zm3165.87 1.05c-10.4,0 -20.87,-3.12 -29.99,-9.62l-13.8 -9.8c-23.35,-16.45 -28.94,-48.75 -12.47,-72.11 16.47,-23.37 48.75,-28.95 72.12,-12.47l14.25 10.11c23.27,16.58 28.67,48.9 12.09,72.18 -10.11,14.16 -26.03,21.72 -42.2,21.72zm-3369.34 158.73c-14.56,0 -29.02,-6.11 -39.25,-17.98 -18.65,-21.67 -16.21,-54.34 5.43,-72.99l13.3 -11.4c21.76,-18.56 54.42,-15.99 72.97,5.74 18.56,21.74 15.99,54.41 -5.75,72.97l-12.97 11.11c-9.78,8.42 -21.78,12.54 -33.74,12.54zm3572.38 0.88c-11.97,0 -23.99,-4.12 -33.76,-12.56l-12.83 -10.99c-21.76,-18.54 -24.34,-51.22 -5.78,-72.95 18.54,-21.77 51.2,-24.34 72.93,-5.79l13.27 11.35c21.63,18.66 24.07,51.35 5.4,72.99 -10.24,11.87 -24.68,17.96 -39.23,17.96zm-3760.57 176.7c-12.97,0 -25.96,-4.85 -36.02,-14.59 -20.51,-19.91 -21.03,-52.65 -1.12,-73.18l12.3 -12.63c20.05,-20.39 52.82,-20.7 73.2,-0.69 20.39,20.02 20.7,52.79 0.67,73.19l-11.87 12.18c-10.14,10.45 -23.63,15.71 -37.16,15.71zm3948.52 0.85c-13.52,0 -27.01,-5.26 -37.17,-15.73l-11.83 -12.16c-20.01,-20.41 -19.67,-53.18 0.76,-73.18 20.39,-20.01 53.18,-19.68 73.18,0.76l12.22 12.54c19.89,20.53 19.39,53.29 -1.14,73.18 -10.06,9.75 -23.05,14.59 -36,14.59zm-4120.31 192.62c-11.45,0 -23.01,-3.79 -32.61,-11.61 -22.18,-18.02 -25.54,-50.63 -7.5,-72.8l11.12 -13.57c18.16,-22.06 50.79,-25.2 72.84,-7.08 22.06,18.17 25.22,50.79 7.07,72.85l-10.73 13.1c-10.23,12.59 -25.13,19.11 -40.2,19.11zm4291.86 0.8c-15.08,0 -30,-6.54 -40.23,-19.15l-10.71 -13.11c-18.15,-22.08 -14.94,-54.68 7.14,-72.83 22.08,-18.13 54.68,-14.96 72.83,7.14l11.11 13.59c18.01,22.19 14.61,54.77 -7.57,72.78 -9.59,7.79 -21.13,11.57 -32.57,11.57zm-4446.33 206.51c-10.12,0 -20.34,-2.97 -29.31,-9.14 -23.54,-16.2 -29.48,-48.42 -13.26,-71.97l9.77 -14.2c16.21,-23.55 48.42,-29.48 71.97,-13.27 23.53,16.2 29.48,48.42 13.27,71.97l-9.78 14.2c-10.03,14.58 -26.22,22.41 -42.67,22.41zm4600.84 0.76c-16.34,0 -32.42,-7.73 -42.47,-22.15l-9.87 -14.14c-16.37,-23.45 -10.61,-55.71 12.83,-72.06 23.45,-16.34 55.71,-10.61 72.06,12.84l9.85 14.14c16.36,23.46 10.61,55.71 -12.83,72.06 -9.02,6.3 -19.34,9.32 -29.57,9.32zm-4638.08 243.25c-28.33,0 -51.45,-21.61 -51.75,-50.02l-0.18 -16.65c-0.29,-28.57 22.65,-51.68 51.22,-51.98 28.05,-0.05 51.98,22.79 52.28,51.37l0.18 16.11c0.29,28.58 -22.65,51.16 -51.22,51.16l-0.54 0zm4674.04 0l-0.55 0c-28.59,0 -51.51,-21.99 -51.22,-50.58l0.17 -16.39c0.29,-28.58 23.63,-50.75 52.29,-50.78 28.58,0.29 51.51,23.91 51.21,52.49l-0.17 15.64c-0.29,28.4 -23.41,49.61 -51.74,49.61zm-4723.2 209.82l51.75 -0.54 -51.75 0.36 -0.17 -18.28c-0.26,-28.59 22.71,-53.36 51.29,-53.36l0.47 0c28.37,0 51.49,24.01 51.75,52.44l0.16 17.56 -103.5 1.81zm4720.6 48.94l-0.45 0c-28.59,0 -51.56,-21.98 -51.31,-50.55l0.18 -18.15c0.29,-28.39 23.41,-52.06 51.73,-52.06l0.55 0c28.57,0 51.51,25.38 51.22,53.95l-0.17 16.34c-0.26,28.43 -23.37,50.47 -51.75,50.47zm-4666.39 258.76c-28.37,0 -51.49,-21.79 -51.75,-50.22l-0.17 -16.61c-0.29,-28.59 22.65,-51.72 51.23,-52.01 28.41,-0.05 51.98,22.77 52.27,51.35l0.16 16.3c0.26,28.57 -22.71,51.18 -51.29,51.18l-0.46 0zm4663.94 0l-0.55 0c-28.59,0 -51.51,-22.1 -51.22,-50.68l0.16 -16.21 103.5 1.31 -0.15 15.77c-0.29,28.4 -23.41,49.82 -51.74,49.82zm-4661.56 258.76c-28.37,0 -51.49,-21.84 -51.74,-50.27l-0.17 -16.65c-0.29,-28.57 22.65,-51.72 51.22,-52.01 28.74,-0.74 51.98,22.77 52.28,51.35l0.16 16.34c0.25,28.58 -22.71,51.23 -51.3,51.23l-0.46 0zm4659.15 0l-0.55 0c-28.57,0 -51.51,-22.15 -51.22,-50.73l0.17 -17.96c0.24,-28.42 23.35,-52.06 51.74,-52.06l0.46 0c28.58,0 51.54,25.18 51.3,53.75l-0.17 16.56c-0.29,28.4 -23.41,50.44 -51.74,50.44zm-4656.83 258.76c-28.37,0 -51.5,-21.89 -51.75,-50.32l-0.16 -16.75c-0.25,-28.57 22.72,-51.7 51.3,-51.96 28.71,-0.33 51.96,22.84 52.21,51.43l0.15 16.32c0.26,28.58 -22.71,51.29 -51.29,51.29l-0.46 0zm4654.5 0l-0.46 0c-28.59,0 -51.54,-22.13 -51.31,-50.72l0.16 -16.49c0.27,-28.59 23.77,-50.32 52.22,-50.92 28.57,0.26 51.54,23.8 51.29,52.39l-0.14 15.85c-0.25,28.41 -23.37,49.89 -51.75,49.89zm-4652.25 258.76c-28.37,0 -51.49,-21.96 -51.74,-50.38l-0.16 -17.72c-0.25,-28.58 22.71,-52.66 51.3,-52.66l0.46 0c28.36,0 51.49,23.79 51.74,52.22l0.16 16.78c0.25,28.59 -22.72,51.75 -51.29,51.75l-0.47 0zm4649.99 0l-0.46 0c-28.59,0 -51.56,-22.19 -51.31,-50.77l0.16 -17.96c0.26,-28.43 23.37,-52.03 51.75,-52.03l0.45 0c28.58,0 51.56,25.07 51.31,53.65l-0.16 16.53c-0.24,28.43 -23.37,50.58 -51.74,50.58zm-4699.51 209.2l51.75 -0.45 -51.75 0.29 -0.14 -17.16c-0.21,-28.59 22.79,-51.93 51.37,-52.13 28.48,0.05 51.92,22.79 52.13,51.37l0.14 17.01 -103.51 1.07zm4697.28 49.56l-0.38 0c-28.58,0 -51.59,-22.29 -51.37,-50.87l0.14 -17.93c0.26,-28.43 23.37,-51.96 51.75,-51.96l0.45 0c28.58,0 51.56,24.91 51.3,53.51l-0.14 16.49c-0.21,28.45 -23.34,50.75 -51.75,50.75zm-4695.08 209.32l51.75 -0.44 -51.75 0.31 -0.15 -17.23c-0.21,-28.57 22.8,-51.91 51.38,-52.12 28.17,-0.14 51.91,22.79 52.13,51.37l0.14 17.06 -103.5 1.05zm4692.89 49.44l-0.38 0c-28.58,0 -51.58,-22.43 -51.37,-51.01l0.14 -17.85c0.26,-28.44 23.37,-51.89 51.75,-51.89l0.45 0c28.58,0 51.56,24.79 51.3,53.36l-0.14 16.58c-0.21,28.46 -23.34,50.82 -51.75,50.82zm-4638.98 258.76c-28.37,0 -51.49,-21.93 -51.75,-50.34l-0.14 -16.87c-0.21,-28.58 22.8,-51.68 51.37,-51.89 27.92,-0.29 51.91,22.91 52.13,51.49l0.15 16.28c0.24,28.59 -22.72,51.32 -51.3,51.32l-0.46 0zm4636.83 0l-0.4 0c-28.57,0 -51.58,-22.51 -51.37,-51.1l0.16 -17.83c0.24,-28.43 23.37,-51.82 51.74,-51.82l0.46 0c28.58,0 51.54,24.68 51.3,53.25l-0.15 16.65c-0.21,28.44 -23.34,50.86 -51.74,50.86zm-4634.68 258.76c-28.37,0 -51.49,-21.94 -51.75,-50.35l-0.15 -17.8c-0.21,-28.57 22.79,-52.6 51.38,-52.6l0.38 0c28.41,0 51.53,23.86 51.75,52.3l0.14 16.71c0.26,28.57 -22.71,51.74 -51.3,51.74l-0.45 0zm4632.52 0l-0.4 0c-28.57,0 -51.58,-22.58 -51.37,-51.15l0.16 -17.82c0.24,-28.43 23.37,-51.78 51.74,-51.78l0.46 0c28.58,0 51.54,24.62 51.31,53.18l-0.16 16.68c-0.21,28.46 -23.34,50.89 -51.74,50.89zm-4630.38 258.76c-28.38,0 -51.5,-21.99 -51.75,-50.42l-0.14 -17.75c-0.22,-28.57 22.79,-52.58 51.37,-52.58l0.39 0c28.4,0 51.53,23.81 51.74,52.25l0.15 16.71c0.25,28.59 -22.71,51.79 -51.3,51.79l-0.45 0zm4628.24 0l-0.38 0c-28.59,0 -51.58,-22.6 -51.37,-51.17l0.14 -16.87c0.26,-28.57 24.22,-50.7 52.22,-51.04 28.57,0.24 51.54,23.74 51.29,52.32l-0.14 16.29c-0.21,28.46 -23.34,50.47 -51.75,50.47zm-4626.12 258.76c-28.36,0 -51.49,-22.06 -51.74,-50.49l-0.14 -17.74c-0.21,-28.57 22.79,-52.53 51.37,-52.53l0.39 0c28.4,0 51.53,23.72 51.75,52.17l0.14 16.79c0.25,28.58 -22.72,51.8 -51.3,51.8l-0.46 0zm4623.98 0l-0.38 0c-28.58,0 -51.58,-22.72 -51.37,-51.31l0.14 -17.72c0.26,-28.43 23.37,-51.74 51.75,-51.74l0.45 0c28.59,0 51.56,24.48 51.31,53.07l-0.14 16.71c-0.21,28.46 -23.34,50.98 -51.75,50.98zm-2.12 258.76l-0.4 0c-28.59,0 -51.58,-22.79 -51.37,-51.37l0.14 -17.7c0.25,-28.43 23.39,-51.68 51.75,-51.68l0.46 0c28.59,0 51.54,24.39 51.29,52.98l-0.14 16.78c-0.21,28.44 -23.34,50.99 -51.74,50.99zm-4619.71 0c-28.36,0 -51.49,-22.08 -51.74,-50.51l-0.15 -16.94c-0.21,-28.59 22.8,-51.72 51.37,-51.93 28.87,-0.35 51.92,22.88 52.14,51.46l0.14 16.46c0.25,28.57 -22.71,51.46 -51.3,51.46l-0.46 0zm4617.57 258.76l-0.4 0c-28.57,0 -51.58,-22.82 -51.37,-51.39l0.16 -17.7c0.24,-28.43 23.37,-51.67 51.73,-51.67l0.47 0c28.58,0 51.54,24.36 51.29,52.93l-0.14 16.84c-0.21,28.44 -23.34,50.99 -51.74,50.99zm-4615.45 0c-28.36,0 -51.49,-22.12 -51.74,-50.56l-0.14 -16.92c-0.22,-28.58 22.79,-51.74 51.37,-51.94 28.64,-0.38 51.92,22.88 52.13,51.46l0.15 16.46c0.24,28.58 -22.72,51.51 -51.31,51.51l-0.46 0zm2.18 258.76c-28.37,0 -51.49,-22.22 -51.75,-50.63l-0.14 -16.96c-0.21,-28.59 22.79,-51.77 51.38,-51.98 28.37,-0.31 51.92,22.87 52.13,51.46l0.14 16.51c0.26,28.58 -22.71,51.6 -51.29,51.6l-0.46 0zm4611.11 0l-0.38 0c-28.58,0 -51.58,-22.81 -51.37,-51.39l0.14 -16.99c0.26,-28.57 23.27,-50.66 52.2,-51.09 28.58,0.24 51.54,23.72 51.3,52.29l-0.14 16.52c-0.22,28.45 -23.34,50.67 -51.75,50.67zm-4608.95 258.76c-28.37,0 -51.49,-22.34 -51.74,-50.77l-0.15 -16.99c-0.21,-28.58 22.8,-51.78 51.37,-51.99 28.11,-0.19 51.91,22.86 52.13,51.43l0.14 16.63c0.26,28.57 -22.71,51.7 -51.29,51.7l-0.46 0zm4606.77 0l-0.4 0c-28.57,0 -51.58,-22.73 -51.37,-51.32l0.16 -17.77c0.24,-28.41 23.36,-51.66 51.74,-51.66l0.46 0c28.59,0 51.54,24.39 51.31,52.98l-0.16 16.82c-0.21,28.44 -23.34,50.96 -51.74,50.96zm-4604.56 258.76c-28.37,0 -51.49,-22.48 -51.75,-50.89l-0.15 -17.46c-0.25,-28.59 22.71,-52.41 51.3,-52.41l0.46 0c28.37,0 51.49,23.29 51.75,51.7l0.15 17.05c0.25,28.6 -22.71,52.01 -51.3,52.01l-0.46 0zm4602.35 0l-0.47 0c-28.58,0 -51.54,-22.88 -51.3,-51.46l0.16 -17.61c0.25,-28.43 23.37,-51.69 51.75,-51.69l0.46 0c28.57,0 51.54,24.36 51.29,52.96l-0.16 16.87c-0.24,28.41 -23.37,50.92 -51.73,50.92zm-4600.1 258.76c-28.37,0 -51.49,-22.55 -51.75,-50.94l-0.15 -17.44c-0.25,-28.58 22.72,-52.37 51.3,-52.37l0.46 0c28.37,0 51.49,23.22 51.74,51.65l0.16 17.06c0.25,28.59 -22.71,52.05 -51.3,52.05l-0.46 0zm4597.86 0l-0.46 0c-28.57,0 -51.54,-22.93 -51.29,-51.51l0.15 -17.6c0.24,-28.41 23.38,-51.65 51.74,-51.65l0.47 0c28.58,0 51.54,24.32 51.3,52.89l-0.16 16.9c-0.26,28.42 -23.37,50.96 -51.75,50.96zm-4595.56 258.76c-28.37,0 -51.49,-22.6 -51.75,-51.01l-0.15 -17.39c-0.25,-28.6 22.71,-52.36 51.3,-52.36l0.46 0c28.37,0 51.49,23.17 51.75,51.58l0.15 17.11c0.26,28.59 -22.71,52.06 -51.29,52.06l-0.47 0zm4593.27 0l-0.46 0c-28.59,0 -51.54,-22.98 -51.29,-51.56l0.14 -16.92c0.26,-28.57 24.27,-50.89 52.21,-51.13 28.57,0.24 51.54,23.7 51.29,52.28l-0.14 16.63c-0.26,28.43 -23.37,50.7 -51.75,50.7zm-4590.91 258.76c-28.37,0 -51.49,-22.65 -51.75,-51.05l-0.16 -17.03c-0.29,-28.6 22.64,-51.94 51.22,-52.25 28.72,-0.93 51.98,22.7 52.27,51.25l0.16 17.1c0.26,28.6 -22.71,51.98 -51.29,51.98l-0.46 0zm4588.56 0l-0.53 0c-28.59,0 -51.53,-23.11 -51.24,-51.7l0.18 -17.48c0.24,-28.39 23.37,-51.58 51.73,-51.58l0.47 0c28.58,0 51.54,24.21 51.3,52.79l-0.17 17.06c-0.29,28.36 -23.41,50.91 -51.74,50.91zm-4586.11 258.76c-28.34,0 -51.45,-22.65 -51.75,-51.03l-0.17 -17.23c-0.26,-28.57 22.71,-51.91 51.29,-52.15 28.15,-0.21 51.96,22.75 52.21,51.32l0.17 16.96c0.28,28.6 -22.65,52.13 -51.22,52.13l-0.54 0zm4583.65 0l-0.45 0c-28.59,0 -51.56,-23.09 -51.31,-51.67l0.16 -17.34c0.29,-28.39 23.43,-51.75 51.75,-51.75l0.54 0c28.58,0 51.51,24.15 51.23,52.74l-0.17 16.94c-0.26,28.43 -23.37,51.08 -51.75,51.08zm-4581.11 258.76c-28.33,0 -51.45,-22.68 -51.74,-51.08l-0.18 -17.33c-0.28,-28.57 22.64,-52.34 51.23,-52.34l0.53 0c28.34,0 51.45,22.96 51.75,51.35l0.18 17.18c0.29,28.58 -22.64,52.21 -51.22,52.21l-0.54 0zm4578.57 0l-0.55 0c-28.57,0 -51.51,-23.22 -51.22,-51.82l0.19 -17.46c0.29,-28.4 23.41,-51.48 51.74,-51.48l0.53 0c28.59,0 51.51,24.19 51.24,52.77l-0.19 17.01c-0.29,28.38 -23.41,50.97 -51.74,50.97zm-4575.94 258.76c-28.33,0 -51.45,-22.74 -51.74,-51.15l-0.18 -17.18c-0.3,-28.58 22.64,-51.98 51.22,-52.27 27.91,-0.26 51.99,22.64 52.28,51.22l0.18 17.16c0.29,28.59 -22.64,52.22 -51.22,52.22l-0.54 0zm4573.32 0l-0.55 0c-28.59,0 -51.51,-23.29 -51.24,-51.87l0.19 -17.46c0.29,-28.38 23.41,-51.43 51.74,-51.43l0.55 0c28.57,0 51.51,24.12 51.22,52.74l-0.17 17.01c-0.31,28.38 -23.41,51.01 -51.74,51.01z"/>
  <path class="fil0" d="M5675.71 7540.67l-59.86 0c-28.59,0 -51.75,-27.48 -51.75,-56.07 0,-16.59 7.79,-33.5 19.94,-42.99 9.59,-12.02 24.48,-20.01 41.02,-20.62 28.57,0.28 51.51,27.43 51.23,56.03l-0.59 63.64z"/>
  <path class="fil0" d="M1246.06 7540.67l-17.25 0c-28.58,0 -51.75,-23.17 -51.75,-51.75 0,-28.58 23.17,-51.75 51.75,-51.75l17.25 0c28.58,0 51.75,23.17 51.75,51.75 0,28.59 -23.17,51.75 -51.75,51.75zm258.76 0l-17.25 0c-28.59,0 -51.75,-23.17 -51.75,-51.75 0,-28.58 23.17,-51.75 51.75,-51.75l17.25 0c28.58,0 51.75,23.17 51.75,51.75 0,28.59 -23.17,51.75 -51.75,51.75zm258.76 0l-17.25 0c-28.58,0 -51.75,-23.17 -51.75,-51.75 0,-28.58 23.17,-51.75 51.75,-51.75l17.25 0c28.59,0 51.75,23.17 51.75,51.75 0,28.59 -23.17,51.75 -51.75,51.75zm258.76 0l-17.25 0c-28.58,0 -51.75,-23.17 -51.75,-51.75 0,-28.58 23.17,-51.75 51.75,-51.75l17.25 0c28.58,0 51.75,23.17 51.75,51.75 0,28.59 -23.17,51.75 -51.75,51.75zm258.76 0l-17.25 0c-28.59,0 -51.75,-23.17 -51.75,-51.75 0,-28.58 23.17,-51.75 51.75,-51.75l17.25 0c28.58,0 51.75,23.17 51.75,51.75 0,28.59 -23.17,51.75 -51.75,51.75zm258.76 0l-17.25 0c-28.58,0 -51.75,-23.17 -51.75,-51.75 0,-28.58 23.17,-51.75 51.75,-51.75l17.25 0c28.59,0 51.75,23.17 51.75,51.75 0,28.59 -23.17,51.75 -51.75,51.75zm258.76 0l-17.25 0c-28.58,0 -51.75,-23.17 -51.75,-51.75 0,-28.58 23.17,-51.75 51.75,-51.75l17.25 0c28.58,0 51.75,23.17 51.75,51.75 0,28.59 -23.17,51.75 -51.75,51.75zm258.76 0l-17.25 0c-28.59,0 -51.75,-23.17 -51.75,-51.75 0,-28.58 23.17,-51.75 51.75,-51.75l17.25 0c28.58,0 51.75,23.17 51.75,51.75 0,28.59 -23.17,51.75 -51.75,51.75zm258.76 0l-17.25 0c-28.58,0 -51.75,-23.17 -51.75,-51.75 0,-28.58 23.17,-51.75 51.75,-51.75l17.25 0c28.59,0 51.75,23.17 51.75,51.75 0,28.59 -23.17,51.75 -51.75,51.75zm258.76 0l-17.25 0c-28.58,0 -51.75,-23.17 -51.75,-51.75 0,-28.58 23.17,-51.75 51.75,-51.75l17.25 0c28.58,0 51.75,23.17 51.75,51.75 0,28.59 -23.17,51.75 -51.75,51.75zm258.76 0l-17.25 0c-28.59,0 -51.75,-23.17 -51.75,-51.75 0,-28.58 23.17,-51.75 51.75,-51.75l17.25 0c28.58,0 51.75,23.17 51.75,51.75 0,28.59 -23.17,51.75 -51.75,51.75zm258.76 0l-17.25 0c-28.58,0 -51.75,-23.17 -51.75,-51.75 0,-28.58 23.17,-51.75 51.75,-51.75l17.25 0c28.59,0 51.75,23.17 51.75,51.75 0,28.59 -23.17,51.75 -51.75,51.75zm258.76 0l-17.25 0c-28.58,0 -51.75,-23.17 -51.75,-51.75 0,-28.58 23.17,-51.75 51.75,-51.75l17.25 0c28.58,0 51.75,23.17 51.75,51.75 0,28.59 -23.17,51.75 -51.75,51.75zm258.76 0l-17.25 0c-28.59,0 -51.75,-23.17 -51.75,-51.75 0,-28.58 23.17,-51.75 51.75,-51.75l17.25 0c28.58,0 51.75,23.17 51.75,51.75 0,28.59 -23.17,51.75 -51.75,51.75zm258.76 0l-17.25 0c-28.58,0 -51.75,-23.17 -51.75,-51.75 0,-28.58 23.17,-51.75 51.75,-51.75l17.25 0c28.59,0 51.75,23.17 51.75,51.75 0,28.59 -23.17,51.75 -51.75,51.75zm258.76 0l-17.25 0c-28.58,0 -51.75,-23.17 -51.75,-51.75 0,-28.58 23.17,-51.75 51.75,-51.75l17.25 0c28.58,0 51.75,23.17 51.75,51.75 0,28.59 -23.17,51.75 -51.75,51.75zm258.76 0l-17.25 0c-28.59,0 -51.75,-23.17 -51.75,-51.75 0,-28.58 23.17,-51.75 51.75,-51.75l17.25 0c28.58,0 51.75,23.17 51.75,51.75 0,28.59 -23.17,51.75 -51.75,51.75z"/>
  <path class="fil1" d="M5127.43 7540.67l-17.25 0c-28.58,0 -51.75,-23.17 -51.75,-51.75 0,-28.58 23.17,-51.75 51.75,-51.75l17.25 0c28.58,0 51.75,23.17 51.75,51.75 0,28.59 -23.17,51.75 -51.75,51.75zm-258.76 0l-17.25 0c-28.58,0 -51.75,-23.17 -51.75,-51.75 0,-28.58 23.17,-51.75 51.75,-51.75l17.25 0c28.59,0 51.75,23.17 51.75,51.75 0,28.59 -23.17,51.75 -51.75,51.75zm-258.76 0l-17.25 0c-28.59,0 -51.75,-23.17 -51.75,-51.75 0,-28.58 23.17,-51.75 51.75,-51.75l17.25 0c28.58,0 51.75,23.17 51.75,51.75 0,28.59 -23.17,51.75 -51.75,51.75zm-258.76 0l-17.25 0c-28.58,0 -51.75,-23.17 -51.75,-51.75 0,-28.58 23.17,-51.75 51.75,-51.75l17.25 0c28.58,0 51.75,23.17 51.75,51.75 0,28.59 -23.17,51.75 -51.75,51.75zm-258.76 0l-17.25 0c-28.58,0 -51.75,-23.17 -51.75,-51.75 0,-28.58 23.17,-51.75 51.75,-51.75l17.25 0c28.59,0 51.75,23.17 51.75,51.75 0,28.59 -23.17,51.75 -51.75,51.75zm-258.76 0l-17.25 0c-28.59,0 -51.75,-23.17 -51.75,-51.75 0,-28.58 23.17,-51.75 51.75,-51.75l17.25 0c28.58,0 51.75,23.17 51.75,51.75 0,28.59 -23.17,51.75 -51.75,51.75zm-258.76 0l-17.25 0c-28.58,0 -51.75,-23.17 -51.75,-51.75 0,-28.58 23.17,-51.75 51.75,-51.75l17.25 0c28.58,0 51.75,23.17 51.75,51.75 0,28.59 -23.17,51.75 -51.75,51.75zm-258.76 0l-17.25 0c-28.58,0 -51.75,-23.17 -51.75,-51.75 0,-28.58 23.17,-51.75 51.75,-51.75l17.25 0c28.59,0 51.75,23.17 51.75,51.75 0,28.59 -23.17,51.75 -51.75,51.75zm-258.76 0l-17.25 0c-28.59,0 -51.75,-23.17 -51.75,-51.75 0,-28.58 23.17,-51.75 51.75,-51.75l17.25 0c28.58,0 51.75,23.17 51.75,51.75 0,28.59 -23.17,51.75 -51.75,51.75zm-258.76 0l-17.25 0c-28.58,0 -51.75,-23.17 -51.75,-51.75 0,-28.58 23.17,-51.75 51.75,-51.75l17.25 0c28.58,0 51.75,23.17 51.75,51.75 0,28.59 -23.17,51.75 -51.75,51.75zm-258.76 0l-17.25 0c-28.58,0 -51.75,-23.17 -51.75,-51.75 0,-28.58 23.17,-51.75 51.75,-51.75l17.25 0c28.59,0 51.75,23.17 51.75,51.75 0,28.59 -23.17,51.75 -51.75,51.75zm-258.76 0l-17.25 0c-28.59,0 -51.75,-23.17 -51.75,-51.75 0,-28.58 23.17,-51.75 51.75,-51.75l17.25 0c28.58,0 51.75,23.17 51.75,51.75 0,28.59 -23.17,51.75 -51.75,51.75zm-258.76 0l-17.25 0c-28.58,0 -51.75,-23.17 -51.75,-51.75 0,-28.58 23.17,-51.75 51.75,-51.75l17.25 0c28.58,0 51.75,23.17 51.75,51.75 0,28.59 -23.17,51.75 -51.75,51.75zm-258.76 0l-17.25 0c-28.58,0 -51.75,-23.17 -51.75,-51.75 0,-28.58 23.17,-51.75 51.75,-51.75l17.25 0c28.59,0 51.75,23.17 51.75,51.75 0,28.59 -23.17,51.75 -51.75,51.75zm-258.76 0l-17.25 0c-28.59,0 -51.75,-23.17 -51.75,-51.75 0,-28.58 23.17,-51.75 51.75,-51.75l17.25 0c28.58,0 51.75,23.17 51.75,51.75 0,28.59 -23.17,51.75 -51.75,51.75zm3812.87 -44.54c-0.33,-2.36 -0.5,-4.76 -0.5,-7.21 0,-2.81 0.22,-5.57 0.66,-8.28 -0.05,5.12 -0.11,10.4 -0.16,15.49z"/>
  <path class="fil2" d="M1423.22 7481.74l3834.23 0c8.33,-806.36 16.73,-1925.85 24.88,-3009.31 8.16,-1086.46 16.6,-2209.61 24.89,-3009.06 -469.44,-663.62 -1185.25,-1043.78 -1966.89,-1043.78 -781.64,0 -1497.44,380.17 -1966.86,1043.78 8.31,802.2 16.79,1929.82 25,3020.56 8.11,1079.2 16.49,2194.24 24.75,2997.82zm3953.73 120.75l-4073.24 0 -0.62 -59.74c-8.47,-807.67 -17.06,-1951.64 -25.38,-3057.94 -8.26,-1099.48 -16.8,-2236.43 -25.2,-3039.62l-0.21 -19.31 11.04 -15.85c492.11,-706.18 1249.15,-1111.21 2076.99,-1111.21 827.85,0 1584.89,405.03 2077,1111.23l11.04 15.83 -0.19 19.31c-8.37,800.46 -16.87,1932.94 -25.1,3028.14 -8.35,1110.58 -16.97,2259 -25.5,3069.41l-0.64 59.74z"/>
  <path class="fil2" d="M4247.46 2727.91c0,-460.33 -410.61,-833.51 -870.96,-833.51 -460.33,0 -870.96,373.18 -870.96,833.51 0,502.15 231.21,767.51 511.67,901.71l-319.55 2203.24 1495.18 0 -432.71 -2215.56c267.23,-138.85 487.34,-462.16 487.34,-889.39z"/>
  <path class="fil3" d="M3901.09 7644.17c13.92,-40.5 22.93,-82.73 26.21,-125.72 10.5,-137.92 -36.31,-276.94 -127.76,-380.72 -80.49,-91.38 -221.94,-177.63 -348.82,-173.47 -12.11,0.38 -24.24,1.17 -36.33,1.73 9.9,-157.94 -44.37,-316.44 -149.08,-435.28 -39.14,-34.18 -78.3,-68.38 -117.46,-102.56 -87.69,-57.79 -183.86,-90.91 -288.52,-99.34 -51.91,2.83 -103.83,5.67 -155.72,8.48 -25.06,4.85 -49.39,11.25 -73.1,18.84 0.85,-7.54 1.9,-15.01 2.5,-22.64 8.3,-115.3 -12.75,-225.05 -63.17,-329.24 -51.07,-103.87 -124.59,-188.05 -220.55,-252.5 -49.01,-24.22 -98,-48.46 -146.99,-72.68 -106.75,-36.35 -215.62,-44.4 -326.61,-24.19l-1.07 0.09c-54.34,18.03 -108.64,36.02 -162.95,54.05 -103.68,50.96 -187.69,124.32 -252.01,220.13 -24.19,48.9 -48.37,97.81 -72.56,146.71 -36.28,106.56 -44.33,215.2 -24.13,325.97l0.14 1.33c7.95,41.02 19.51,80.25 34.36,117.91 -61.81,-32.67 -128.19,-52.1 -199.26,-57.82 -43.9,2.38 -87.8,4.76 -131.68,7.18 -91.66,17.73 -172.66,57.25 -243.06,118.53 -92.69,81.67 -152.76,196.36 -168.21,318.55 -24.36,-5.33 -49.23,-9.14 -74.72,-11.21 -46.59,2.55 -93.19,5.09 -139.78,7.64 -97.27,18.82 -183.26,60.77 -257.99,125.82 -105.02,92.52 -170.59,224.99 -181.24,364.46 -6.53,85.58 8.23,171.52 41.18,249.96l3858.39 0z"/>
  <path class="fil3" d="M6884.58 7630.86c-41.35,-158.76 -167.38,-280.32 -311.23,-352.2 -22.56,-160.1 -112.8,-307.94 -249.29,-398.76 -36.64,-24.15 -74.94,-43.49 -114.68,-58.59 -19.2,-89.53 -58.77,-169.09 -119.2,-238.49 -33.98,-29.67 -67.97,-59.36 -101.98,-89.01 -76.09,-50.17 -159.57,-78.92 -250.43,-86.25 -47.04,-2.19 -94.53,2.64 -141.25,7.47 -5.88,1.93 -11.77,3.88 -17.65,5.85 -16.41,-82.44 -54.2,-160.35 -110.23,-223.96 -31.16,-27.19 -62.29,-54.38 -93.45,-81.56 -69.73,-45.96 -146.23,-72.32 -229.48,-79.01 -41.28,2.24 -82.56,4.49 -123.86,6.73 -86.17,16.7 -162.38,53.86 -228.6,111.49 -93.05,81.99 -151.15,199.37 -160.57,322.93 -3.09,40.58 -0.79,81.22 6.45,120.91 -27.03,1.49 -54.05,2.97 -81.08,4.44 -86.96,16.82 -163.86,54.32 -230.67,112.51 -93.91,82.73 -152.55,201.16 -162.07,325.86 -4.55,59.77 2.55,119.72 19.86,176.53 -124.89,17.25 -246.37,44.97 -364.94,98.72 -174.39,79.08 -280.01,267.35 -277.15,454.81l3365.12 0c-1.88,-48.09 -9.87,-96.26 -23.62,-140.4z"/>
  <path class="fil4" d="M9085.22 5888.43c29.1,60.22 35,131.57 10.56,199.46 -48.25,133.9 -195.91,203.33 -329.81,155.12 -133.9,-48.25 -203.33,-195.91 -155.12,-329.81 24.48,-67.87 74.54,-119.08 135.29,-146.94 -29.05,-60.17 -34.98,-131.57 -10.52,-199.47 48.25,-133.88 195.88,-203.33 329.82,-155.08 133.88,48.25 203.33,195.93 155.12,329.8 -24.46,67.88 -74.52,119.09 -135.33,146.92zm985.96 407.96c29.44,-81.7 -12.94,-171.82 -94.62,-201.24l-150.58 -54.22c107.63,-456.27 -141.71,-930.65 -593.33,-1093.36 -451.69,-162.71 -946.21,43.7 -1154.31,463.82l-3287.01 -1184.15c-81.72,-29.43 -171.78,12.92 -201.23,94.63 -29.43,81.7 12.94,171.8 94.62,201.21l155.74 56.1 -280.48 778.54c-29.43,81.73 12.95,171.81 94.65,201.24 81.66,29.39 171.78,-12.96 201.19,-94.65l280.5 -778.57 140.13 50.49 -168.3 467.13c-29.41,81.72 12.95,171.8 94.67,201.24 81.67,29.41 171.76,-12.94 201.2,-94.65l168.3 -467.13 124.55 44.87 -291.67 809.71c-29.47,81.72 12.93,171.78 94.62,201.21 81.7,29.45 171.78,-12.92 201.23,-94.63l291.69 -809.71 1994.94 718.66c-52.65,424.12 192.12,843.26 611.08,994.19 418.98,150.94 874.83,-15.8 1104.73,-376.06l166.52 59.98c81.66,29.41 171.73,-12.94 201.18,-94.64z"/>
  <path class="fil5" d="M12631.39 8785.77c-342.53,-490.5 -1023.07,-478.03 -1698.72,-465.56 -392.52,7.27 -783.4,14.51 -1105.4,-76.86 -876.21,-248.65 -1588.84,-695.67 -1670.42,-1276.84 -81.59,-581.19 492.43,-482.62 1079.03,48.34 594.06,537.74 1267.03,172.02 1471.33,-155.24 274.59,-439.87 97.14,-1369.32 -700.08,-1651.26 -636.39,-225.05 -1926.61,166.86 -1935.65,-615.9 -6.99,-604.92 2137.57,-840.84 2790.99,145.44 0,0 -83.96,-261.61 -256.41,-592.83 -262.52,-504.21 -1025.79,-1001.88 -525.52,-1295.14 547.03,-320.67 1375.57,1030.86 1418.79,1551.88 -94.79,-893.53 -655.52,-1657.98 -200.88,-1871.96 644.76,-303.47 904.31,1376.54 880.37,2054.54 131.29,-1047.04 -110.21,-1737.06 321.05,-1754.31 502.55,-20.09 277.39,1761.49 244.87,2089.34 -33.54,338.42 -111.14,761.46 -155.32,1220.79 -86.89,904.31 455.56,1633.44 821.47,1895.49l-779.48 750.09z"/>
  <path class="fil6" d="M12631.39 8785.77c-10.63,-15.21 -21.58,-29.95 -32.84,-44.2l-0.46 -0.59c-5.56,-7.03 -11.19,-13.94 -16.9,-20.74l-0.28 -0.33c-5.71,-6.79 -11.49,-13.46 -17.34,-20.02l-0.5 -0.57c-5.85,-6.55 -11.78,-13 -17.78,-19.33l-0.35 -0.38c-6.03,-6.36 -12.14,-12.61 -18.31,-18.75l-0.37 -0.37c-6.14,-6.1 -12.35,-12.09 -18.63,-17.98l-0.59 -0.55c-6.28,-5.88 -12.64,-11.66 -19.06,-17.34l-0.42 -0.36c-6.44,-5.69 -12.96,-11.28 -19.54,-16.77l-0.51 -0.43c-6.58,-5.48 -13.23,-10.86 -19.94,-16.14l-0.42 -0.33c-6.77,-5.32 -13.6,-10.52 -20.5,-15.64l-0.21 -0.16c-14,-10.37 -28.27,-20.34 -42.81,-29.92l792.99 -720.09c4.86,5.25 9.72,10.44 14.56,15.57l1.14 1.21c6.09,6.43 12.17,12.77 18.24,19.01l0.08 0.08 0.03 0.03 0.03 0.03c6.27,6.44 12.53,12.79 18.78,19.03l0 0 0.02 0.02c6.01,6 12.01,11.91 18,17.73l1.51 1.46c5.73,5.55 11.45,11.01 17.15,16.39l1.47 1.38c5.63,5.29 11.24,10.49 16.83,15.61l2.08 1.9c5.59,5.1 11.16,10.11 16.72,15.04l1.37 1.21c5.68,5.03 11.34,9.97 16.98,14.81l1.27 1.09c5.53,4.74 11.03,9.38 16.51,13.94l1.91 1.58c5.49,4.55 10.96,9.01 16.4,13.37l1.14 0.92c5.56,4.45 11.09,8.81 16.59,13.07l1.28 0.99c5.45,4.21 10.86,8.32 16.24,12.33l1.18 0.88c5.61,4.18 11.19,8.25 16.72,12.22l-779.48 750.09z"/>
  <polygon class="fil0" points="13768.48,8110.63 13457.05,7830.09 12382,8823.23 12650.38,9145.18 "/>
  <polygon class="fil7" points="14743.63,8933.54 13834.65,7964.07 12544.05,9182.74 14743.63,11585.28 "/>
  <path class="fil0" d="M13318.68 9538.17c-69.97,-1.34 -125.58,-59.14 -124.24,-129.1 1.33,-69.97 59.12,-125.58 129.09,-124.24 69.97,1.33 125.56,59.15 124.25,129.1 -1.36,69.93 -59.15,125.58 -129.1,124.24z"/>
  <path class="fil0" d="M13692 9969.97c-69.95,-1.36 -125.58,-59.15 -124.27,-129.12 1.36,-69.95 59.17,-125.58 129.15,-124.24 69.94,1.33 125.57,59.17 124.2,129.08 -1.31,69.97 -59.15,125.6 -129.08,124.27z"/>
  <path class="fil8" d="M12377.24 2150.42l-2162.34 0c4.28,-65.53 33.52,-130.41 84.17,-172.44 45.52,-37.77 97.83,-65.05 153.37,-85.91 -5.75,-26.03 -7.95,-52.62 -5.97,-78.77 10.18,-133.1 102.94,-223.98 220.82,-253.89 -1.12,-16.41 -1.19,-32.81 0.07,-49.06 16.69,-219 201.42,-352.24 409.61,-352.24 180.18,0 323.5,160.37 349.03,330.45 29.03,-1.59 58.03,-3.17 87.07,-4.74 71.59,5.78 137.37,28.41 197.31,67.93 26.79,23.37 53.54,46.75 80.33,70.14 28.89,32.78 52.06,70 69.12,109.82 61.97,-1.67 123.96,-2.81 185.94,-3.07 0.38,0 0.76,0 1.14,0 197.55,0 348.29,204.61 334.16,389.93 -0.83,10.87 -2.19,21.44 -3.85,31.84z"/>
  <path class="fil2" d="M4211.61 11042.58l-1824.07 0c-1.41,-8.76 -2.55,-17.7 -3.25,-26.86 -11.92,-156.33 115.23,-328.94 281.85,-328.94 0.34,0 0.66,0 1,0 52.28,0.21 104.59,1.19 156.85,2.59 14.39,-33.58 33.93,-65 58.31,-92.63 22.62,-19.74 45.18,-39.45 67.76,-59.17 50.58,-33.34 106.06,-52.42 166.45,-57.31 24.49,1.33 48.96,2.66 73.44,3.99 21.56,-143.44 142.43,-278.74 294.45,-278.74 175.61,0 331.43,112.39 345.51,297.12 1.07,13.72 1.02,27.55 0.09,41.38 99.43,25.26 177.68,101.9 186.27,214.2 1.65,22.04 -0.21,44.47 -5.06,66.43 46.87,17.6 91,40.59 129.4,72.45 42.73,35.45 67.4,90.18 71,145.48z"/>
  <path class="fil2" d="M10343.36 10646.76l-1892.9 0c2.6,-11.89 5.83,-23.7 9.81,-35.47 11.92,-24.05 23.77,-48.15 35.69,-72.18 31.66,-47.16 72.99,-83.23 124,-108.31 26.72,-8.85 53.44,-17.74 80.15,-26.59 22.47,-3.02 45.21,-4.14 67.92,-4.5 -16.13,-44.52 -23.52,-91.72 -20.03,-137.78 13.94,-182.79 159.55,-298.43 330.49,-311.92 8.73,-91.53 52.37,-178.1 121.5,-238.97 50.37,-43.85 108.34,-72.13 173.92,-84.83 31.4,-1.72 62.83,-3.43 94.22,-5.14 63.34,5.11 121.53,25.13 174.59,60.1 23.7,20.7 47.38,41.38 71.07,62.08 64.4,73.08 97.4,171.01 89.98,268.13 -2.47,32.26 -9.4,63.93 -20.13,94.17 33.3,-16.61 68.83,-28.79 105.73,-35.71 25.11,-4.59 50.04,-6.88 74.82,-6.88 44.47,0 88.41,7.38 131.76,22.15 71,27.07 123.38,59.21 174.32,116.46 24.7,27.76 47.01,59.08 61.93,93.04 16.18,36.87 28.21,75.94 37.71,115.16 12.92,70.93 7.79,140.47 -15.44,208.68 -3.36,9.66 -7.11,19.06 -11.09,28.31z"/>
 </g>
</svg>
