<?xml version="1.0" encoding="UTF-8"?>
<!DOCTYPE svg PUBLIC "-//W3C//DTD SVG 1.1//EN" "http://www.w3.org/Graphics/SVG/1.1/DTD/svg11.dtd">
<!-- Creator: CorelDRAW -->
<svg xmlns="http://www.w3.org/2000/svg" xml:space="preserve" width="1.15091in" height="1.22473in" version="1.1" style="shape-rendering:geometricPrecision; text-rendering:geometricPrecision; image-rendering:optimizeQuality; fill-rule:evenodd; clip-rule:evenodd"
viewBox="0 0 174.29 185.47"
 xmlns:xlink="http://www.w3.org/1999/xlink"
 xmlns:xodm="http://www.corel.com/coreldraw/odm/2003">
 <defs>
  <style type="text/css">
   <![CDATA[
    .fil1 {fill:#001922}
    .fil0 {fill:#FEFEFE}
   ]]>
  </style>
 </defs>
 <g id="Capa_x0020_1">
  <metadata id="CorelCorpID_0Corel-Layer"/>
  <path class="fil0" d="M47.1 43.31c-5.71,-4.68 -11.67,-13.88 -24.64,-13.36 -26.45,1.04 -34.49,49.97 3.37,73.04 -10.89,7.98 -34.75,20.82 -22.3,43.03 11.41,20.3 35.53,5.55 54.46,12.84 15.3,5.9 19.71,30.02 43.31,26.2 22.56,-3.64 20.49,-25.85 15.56,-47.36 52.91,11.8 85.06,-62.46 24.9,-58.29 5.45,-12.14 21.27,-33.49 6.48,-50.83 -13.75,-16.31 -33.46,-2.43 -44.87,5.38 -2.85,-49.97 -51.61,-43.03 -56.28,9.37z"/>
  <path class="fil1" d="M69.67 89.46c-14.26,3.99 -19.71,10.41 -32.94,16.48 -43.83,19.6 -33.97,47.19 -3.89,45.46 19.97,-1.04 28.53,-1.39 39.42,10.24 5.71,6.07 15.56,21.86 31.38,15.96 12.97,-4.86 11.15,-23.94 7.26,-35.57 -4.15,-11.1 -8.56,-23.94 -12.97,-35.57 -4.41,-11.1 -13.75,-21.17 -28.27,-17z"/>
  <path class="fil1" d="M128.02 28.05c-33.71,8.33 -41.49,64.71 -10.11,58.47 31.9,-6.42 40.2,-65.93 10.11,-58.47z"/>
  <path class="fil1" d="M72 8.61c-25.67,11.1 -24.12,72 5.96,61.24 23.6,-8.33 26.19,-74.95 -5.96,-61.24z"/>
  <path class="fil1" d="M17.02 39.32c-12.45,8.33 -11.93,23.08 -7,37.13 13.75,38 51.09,18.39 35.27,-20.47 -3.89,-9.72 -15.3,-25.33 -28.27,-16.66z"/>
  <path class="fil1" d="M112.72 126.24c13.49,9.02 21.01,8.85 35.27,0.87 8.04,-4.34 23.86,-16.13 18.41,-32.27 -6.74,-20.65 -59.13,-5.38 -53.68,31.4z"/>
 </g>
</svg>
